<?xml version="1.0" standalone="no"?>
<!DOCTYPE svg PUBLIC "-//W3C//DTD SVG 20010904//EN"
 "http://www.w3.org/TR/2001/REC-SVG-20010904/DTD/svg10.dtd">
<svg version="1.0" xmlns="http://www.w3.org/2000/svg"
 width="350.000000pt" height="137.000000pt" viewBox="0 0 350.000000 137.000000"
 preserveAspectRatio="xMidYMid meet">

<g transform="translate(0.000000,137.000000) scale(0.100000,-0.100000)"
fill="#000000" stroke="none">
<path d="M2165 1354 c-16 -8 -62 -47 -103 -87 -206 -201 -194 -186 -245 -306
-26 -61 -54 -142 -62 -179 -9 -37 -18 -77 -20 -89 -9 -38 -20 -26 -23 23 -4
61 -35 141 -72 186 -90 109 -346 139 -489 57 -97 -56 -177 -156 -229 -287 -23
-60 -26 -81 -27 -197 0 -122 2 -133 27 -180 34 -65 114 -139 186 -173 51 -24
69 -27 167 -27 99 0 116 3 168 27 66 31 143 106 183 177 l28 49 26 -37 c46
-63 107 -111 141 -111 25 0 32 -6 44 -34 24 -56 89 -98 220 -141 94 -30 134
-31 205 -4 30 11 88 32 128 46 95 33 119 55 129 117 l8 49 60 19 c68 22 119
66 136 115 6 19 9 67 6 111 -4 66 -13 97 -66 221 -34 78 -69 173 -77 210 -27
116 -128 281 -221 358 -72 60 -144 103 -172 103 -15 0 -39 -7 -56 -16z m102
-23 c51 -32 84 -64 79 -78 -3 -7 7 -19 23 -27 29 -16 40 -51 12 -41 -9 3 -5
-4 9 -15 l25 -21 -25 5 c-25 6 -25 6 -2 -5 12 -7 22 -15 22 -19 0 -5 14 -23
32 -41 48 -52 92 -132 55 -101 -7 6 5 -24 25 -66 21 -42 38 -83 38 -89 0 -7 4
-13 10 -13 5 0 17 -12 25 -27 9 -16 13 -19 9 -8 -4 11 -6 30 -6 41 1 12 -10
55 -23 95 -14 40 -21 69 -16 64 5 -6 30 -72 56 -149 32 -96 43 -142 36 -149
-7 -7 -7 -15 0 -24 9 -10 8 -13 -4 -13 -18 0 -55 61 -92 155 -15 39 -31 72
-35 75 -4 3 -15 19 -24 35 -17 29 -17 27 -1 -25 4 -14 4 -22 -1 -17 -4 4 -20
45 -36 90 -15 45 -26 66 -23 47 l5 -35 -15 30 c-8 17 -14 35 -15 42 0 6 -4 14
-9 17 -5 4 -6 -7 0 -26 5 -18 14 -52 19 -76 6 -24 26 -60 44 -80 18 -20 39
-55 46 -77 30 -95 115 -243 179 -314 35 -39 39 -56 15 -65 -13 -5 -14 -4 -6 7
9 11 6 19 -15 38 -15 13 -21 16 -14 7 12 -16 9 -22 -11 -19 -4 0 4 -18 18 -42
13 -23 24 -54 24 -68 0 -28 -32 -65 -48 -55 -5 3 -15 -1 -21 -8 -7 -8 -30 -17
-52 -21 -45 -8 -52 -16 -53 -64 -1 -30 -4 -35 -20 -33 -17 3 -18 2 -6 -13 11
-13 11 -18 0 -28 -10 -9 -11 -9 -5 2 5 9 0 20 -16 33 -20 15 -21 17 -4 11 17
-6 18 -5 7 9 -11 14 -9 19 10 32 12 9 19 16 14 16 -5 0 -4 6 2 12 5 7 13 32
17 55 8 49 20 67 60 87 31 16 54 3 34 -20 -7 -8 -6 -15 2 -20 8 -5 9 -3 4 6
-5 9 -4 11 4 6 6 -4 8 -13 4 -19 -16 -26 -12 -37 9 -26 15 8 19 8 14 0 -4 -6
-3 -11 3 -11 16 0 33 40 27 64 -3 12 -17 39 -31 60 -14 21 -23 41 -20 46 3 4
-2 10 -10 14 -8 3 -15 10 -15 17 0 6 -21 32 -47 58 -82 80 -175 190 -168 200
3 5 0 13 -6 17 -8 5 -9 3 -4 -7 8 -12 6 -12 -8 0 -19 15 -23 36 -5 25 7 -4 8
-3 4 5 -4 6 -11 9 -16 6 -17 -11 -40 53 -49 139 -14 121 -56 208 -94 193 -7
-3 -31 -38 -52 -79 -44 -85 -81 -139 -124 -186 -47 -51 -61 -85 -72 -180 -11
-90 -14 -98 -92 -245 -50 -93 -58 -137 -31 -175 10 -15 11 -22 3 -22 -8 0 -7
-5 2 -17 12 -15 12 -16 -1 -8 -8 4 -23 15 -32 23 -14 12 -18 12 -18 2 0 -9 -5
-7 -15 6 -11 14 -15 16 -15 4 -1 -31 -30 23 -31 59 -1 24 -3 28 -6 13 -5 -26
-17 -17 -47 37 -33 59 -4 189 66 291 30 44 44 71 25 48 -8 -10 -17 -18 -21
-18 -3 0 -2 8 4 18 10 18 40 126 43 154 1 9 5 14 9 12 7 -5 30 30 24 37 -2 2
3 10 12 18 13 13 14 12 9 -10 -3 -13 -12 -58 -18 -99 -8 -45 -22 -91 -37 -115
-16 -25 -19 -35 -9 -26 21 17 21 8 0 -32 -9 -18 -18 -43 -19 -57 -2 -21 0 -20
16 11 30 56 58 155 80 278 21 122 36 162 26 71 l-6 -55 20 54 c11 30 39 79 61
110 37 49 38 53 11 27 -39 -36 -41 -25 -5 23 l26 36 -29 -27 c-44 -41 -54 -34
-13 8 18 20 56 47 82 61 27 13 47 27 44 29 -3 3 -15 1 -26 -6 -31 -16 -25 -5
8 17 17 10 40 34 53 52 21 31 79 71 103 71 5 0 24 -9 42 -19z m108 -91 c3 -6
-1 -7 -9 -4 -18 7 -21 14 -7 14 6 0 13 -4 16 -10z m71 -65 c21 -16 31 -31 27
-40 -4 -12 -9 -13 -19 -4 -7 6 -12 16 -11 22 1 6 -4 12 -10 13 -7 1 -17 2 -21
3 -9 1 -12 31 -4 31 3 0 20 -11 38 -25z m-9 -22 c-4 -3 0 -15 9 -25 13 -14 20
-15 31 -6 8 6 13 7 12 2 -2 -5 11 -31 29 -58 18 -28 32 -55 32 -60 0 -6 -12 8
-26 32 -37 61 -39 52 -4 -18 41 -82 38 -89 -6 -10 -20 36 -52 81 -71 101 -25
26 -31 38 -21 42 19 8 22 8 15 0z m87 -189 c3 -8 2 -12 -4 -9 -6 3 -10 10 -10
16 0 14 7 11 14 -7z m-1048 -109 c56 -23 82 -52 99 -109 54 -182 -40 -434
-191 -506 -87 -42 -212 -23 -292 45 -57 48 -77 98 -75 190 2 168 109 342 237
389 51 19 166 15 222 -9z m1204 -185 c0 -5 -7 -7 -15 -4 -8 4 -12 10 -9 15 6
11 24 2 24 -11z m30 -60 c6 -11 8 -20 6 -20 -3 0 -10 9 -16 20 -6 11 -8 20 -6
20 3 0 10 -9 16 -20z m-15 -160 c3 -5 -1 -10 -10 -10 -9 0 -13 5 -10 10 3 6 8
10 10 10 2 0 7 -4 10 -10z m-772 -139 c8 -14 13 -34 12 -44 -2 -9 1 -15 6 -11
5 3 9 2 10 -3 2 -27 9 -47 18 -56 18 -18 13 -27 -15 -27 -14 0 -34 -5 -45 -10
-11 -6 -19 -7 -19 -1 0 11 25 21 52 21 17 0 18 3 8 15 -7 8 -20 15 -30 15 -10
0 -28 9 -41 21 -13 11 -18 17 -10 14 11 -6 11 -3 -1 16 -15 26 -16 42 -4 76 6
19 10 21 25 11 10 -6 25 -23 34 -37z m-13 -121 c0 -5 -7 -10 -16 -10 -8 0 -12
5 -9 10 3 6 10 10 16 10 5 0 9 -4 9 -10z m21 -67 c13 -17 13 -17 -6 -3 -11 8
-22 16 -24 17 -2 2 0 3 6 3 6 0 17 -8 24 -17z m59 -39 c0 -2 -9 0 -20 6 -11 6
-20 13 -20 16 0 2 9 0 20 -6 11 -6 20 -13 20 -16z"/>
<path d="M2085 1080 c-14 -28 -30 -48 -35 -45 -5 3 -13 -7 -16 -22 -7 -25 -8
-25 -15 -8 -5 14 -8 16 -8 4 -1 -8 -8 -24 -17 -35 -14 -18 -15 -18 -9 6 8 36
-42 -74 -54 -118 l-10 -37 29 35 c61 72 111 147 140 208 35 74 31 83 -5 12z"/>
<path d="M2056 1075 c-9 -26 -7 -32 5 -12 6 10 9 21 6 23 -2 3 -7 -2 -11 -11z"/>
<path d="M2091 1028 c-6 -17 -22 -45 -34 -62 -35 -46 -42 -65 -12 -31 14 17
30 29 35 28 5 -2 19 15 30 37 23 46 26 66 4 30 l-15 -25 6 28 c7 37 0 34 -14
-5z m0 -45 c-12 -20 -14 -14 -5 12 4 9 9 14 11 11 3 -2 0 -13 -6 -23z"/>
<path d="M2391 987 c-2 -34 21 -106 37 -119 13 -11 14 -10 4 9 -7 12 -19 46
-26 75 -8 29 -15 45 -15 35z"/>
<path d="M1937 955 c-24 -50 -20 -58 4 -12 11 22 19 41 17 43 -3 2 -12 -12
-21 -31z"/>
<path d="M2355 902 c2 -29 12 -62 21 -75 14 -19 15 -19 9 -2 -5 11 -14 45 -22
75 l-13 55 5 -53z"/>
<path d="M2371 940 c-1 -19 19 -93 24 -88 2 2 -2 26 -10 53 -7 28 -14 43 -14
35z"/>
<path d="M1956 838 c-13 -24 -28 -56 -32 -73 -6 -26 -8 -27 -15 -10 -5 13 -8
14 -8 5 0 -8 4 -24 8 -35 7 -17 9 -16 15 10 4 17 21 56 37 88 34 67 31 76 -5
15z"/>
<path d="M1937 733 c-9 -26 -18 -64 -21 -83 l-5 -35 10 35 c6 19 17 55 25 79
8 25 12 46 10 48 -2 3 -11 -17 -19 -44z"/>
<path d="M2507 744 c3 -17 0 -41 -6 -52 -8 -15 -8 -28 1 -46 13 -29 26 -33 34
-11 5 11 10 13 19 5 8 -7 6 4 -4 27 -10 21 -25 54 -34 73 l-16 35 6 -31z"/>
<path d="M1941 663 c0 -6 -4 -20 -7 -30 -5 -14 -4 -15 5 -7 7 7 11 20 8 30 -3
11 -5 14 -6 7z"/>
<path d="M1851 574 c0 -11 3 -14 6 -6 3 7 2 16 -1 19 -3 4 -6 -2 -5 -13z"/>
<path d="M1801 554 c0 -11 3 -14 6 -6 3 7 2 16 -1 19 -3 4 -6 -2 -5 -13z"/>
<path d="M1821 472 c-28 -97 -30 -161 -7 -197 10 -15 20 -24 23 -22 3 3 -2 16
-11 29 -23 32 -20 54 14 127 23 48 28 67 19 77 -6 7 -9 17 -6 21 2 4 2 16 -2
26 -5 13 -14 -6 -30 -61z m39 -1 c0 -4 -6 -8 -14 -8 -8 0 -12 6 -9 14 5 13 23
9 23 -6z"/>
<path d="M1791 514 c0 -11 3 -14 6 -6 3 7 2 16 -1 19 -3 4 -6 -2 -5 -13z"/>
<path d="M2627 509 c7 -7 15 -10 18 -7 3 3 -2 9 -12 12 -14 6 -15 5 -6 -5z"/>
<path d="M1774 327 c2 -27 9 -54 16 -60 10 -10 11 -8 5 8 -4 11 -12 38 -16 60
-8 40 -8 40 -5 -8z"/>
<path d="M1750 314 c0 -10 5 -26 10 -34 8 -11 9 -7 4 15 -8 37 -14 45 -14 19z"/>
<path d="M2470 1101 c0 -5 5 -13 10 -16 6 -3 10 -2 10 4 0 5 -4 13 -10 16 -5
3 -10 2 -10 -4z"/>
<path d="M46 1011 c-16 -17 -19 -62 -28 -403 -6 -210 -11 -409 -12 -442 -1
-52 2 -61 25 -78 24 -18 30 -19 55 -6 28 13 29 16 41 128 6 63 12 138 12 166
l1 52 163 31 c89 18 196 35 238 38 l77 6 1 -109 c1 -162 12 -263 28 -280 23
-23 70 -18 88 10 14 21 15 43 7 168 -6 84 -6 184 -1 243 4 55 8 159 9 230 0
72 5 147 11 168 8 31 7 43 -6 63 -25 38 -73 30 -99 -16 -18 -30 -22 -58 -26
-194 -5 -150 -6 -159 -25 -161 -11 -2 -51 -6 -90 -9 -58 -5 -263 -41 -354 -62
l-24 -5 6 221 c6 210 5 222 -13 240 -25 25 -62 25 -84 1z"/>
<path d="M2837 1005 l-25 -26 -4 -402 c-2 -221 -1 -411 3 -422 4 -13 32 -31
75 -50 96 -40 250 -47 353 -16 201 61 312 309 232 522 -39 103 -151 219 -273
281 -92 48 -300 138 -318 138 -10 0 -29 -11 -43 -25z m227 -199 c218 -103 306
-201 306 -339 0 -112 -66 -218 -158 -254 -63 -24 -204 -25 -247 -1 l-30 16 0
316 c0 174 4 316 8 316 5 0 59 -24 121 -54z"/>
</g>
</svg>
